          <svg
            width="120"
            height="120"
            viewBox="0 0 120 120"
            fill="none"
            xmlns="http://www.w3.org/2000/svg"
          >
            <g clipPath="url(#clip0_49_20)">
              <path
                d="M42 60C48.3652 60 54.4697 56.8393 58.9706 51.2132C63.4714 45.5871 66 37.9565 66 30C66 22.0435 63.4714 14.4129 58.9706 8.7868C54.4697 3.16071 48.3652 0 42 0C35.6348 0 29.5303 3.16071 25.0294 8.7868C20.5286 14.4129 18 22.0435 18 30C18 37.9565 20.5286 45.5871 25.0294 51.2132C29.5303 56.8393 35.6348 60 42 60ZM33.4313 71.25C14.9625 71.25 0 89.9531 0 113.039C0 116.883 2.49375 120 5.56875 120H78.4312C78.7687 120 79.0875 119.953 79.425 119.883C65.1188 106.969 60.7125 86.8359 60.0938 72.9609C57.075 71.8359 53.8875 71.25 50.5875 71.25H33.45H33.4313ZM91.3313 52.8984L68.8313 64.1484C67.125 65.0156 66 67.0781 66 69.375C66 84.2109 70.8562 108.938 91.275 119.578C92.3812 120.164 93.6375 120.164 94.7437 119.578C115.144 108.938 120 84.2109 120 69.375C120 67.0781 118.875 65.0156 117.169 64.1484L94.6687 52.8984C93.6 52.3594 92.4 52.3594 91.3313 52.8984ZM110.888 73.125C110.156 85.0078 105.787 100.477 93 108.211V64.1953L110.888 73.125Z"
                fill="#F0910C"
              />
            </g>
            <defs>
              <clipPath id="clip0_49_20">
                <rect width="120" height="120" fill="white" />
              </clipPath>
            </defs>
          </svg>