          <svg
            width="120"
            height="120"
            viewBox="0 0 120 120"
            fill="none"
            xmlns="http://www.w3.org/2000/svg"
          >
            <path
              d="M11.1562 70.4063L53.5078 109.945C55.2656 111.586 57.5859 112.5 60 112.5C62.4141 112.5 64.7344 111.586 66.4922 109.945L108.844 70.4063C115.969 63.7735 120 54.4688 120 44.7422V43.3828C120 27 108.164 13.0313 92.0156 10.336C81.3281 8.55472 70.4531 12.0469 62.8125 19.6875L60 22.5L57.1875 19.6875C49.5469 12.0469 38.6719 8.55472 27.9844 10.336C11.8359 13.0313 0 27 0 43.3828V44.7422C0 54.4688 4.03125 63.7735 11.1562 70.4063Z"
              fill="#F0910C"
            />
          </svg>