          <svg
            width="120"
            height="120"
            viewBox="0 0 120 120"
            fill="none"
            xmlns="http://www.w3.org/2000/svg"
          >
            <path
              d="M34.1458 32.0859C28.0208 25.1016 28.0208 13.7578 34.1458 6.77344C40.2708 -0.210938 50.1875 -0.210938 56.3125 6.77344L60 10.9922L63.6875 6.77344C69.8125 -0.210938 79.7292 -0.210938 85.8542 6.77344C91.9792 13.7578 91.9792 25.1016 85.8542 32.0859L64.6875 56.2734C63.3958 57.75 61.7083 58.4766 60 58.4766C58.2917 58.4766 56.6042 57.75 55.3125 56.2734L34.1458 32.0859ZM118.375 78.8203C121.104 82.9922 120.312 88.8516 116.604 91.9219L90.2292 113.789C85.3542 117.82 79.4792 120 73.4167 120H40H6.66667C2.97917 120 0 116.648 0 112.5V97.5C0 93.3516 2.97917 90 6.66667 90H14.3333L23.6875 81.5625C28.4167 77.2969 34.2917 75 40.3542 75H56.6667H60H73.3333C77.0208 75 80 78.3516 80 82.5C80 86.6484 77.0208 90 73.3333 90H60H56.6667C54.8333 90 53.3333 91.6875 53.3333 93.75C53.3333 95.8125 54.8333 97.5 56.6667 97.5H81.7917L106.729 76.8281C110.437 73.7578 115.646 74.6484 118.375 78.8203ZM40.3333 90H40.1458C40.2083 90 40.2708 90 40.3333 90Z"
              fill="#F0910C"
            />
          </svg>