          <svg
            width="120"
            height="120"
            viewBox="0 0 120 120"
            fill="none"
            xmlns="http://www.w3.org/2000/svg"
          >
            <g clipPath="url(#clip0_45_169)">
              <path
                d="M60 11.25C33.0703 11.25 11.25 33.0703 11.25 60V69.375C11.25 72.4922 8.74219 75 5.625 75C2.50781 75 0 72.4922 0 69.375V60C0 26.8594 26.8594 0 60 0C93.1406 0 120 26.8594 120 60V93.7734C120 105.164 110.766 114.398 99.3516 114.398L73.5 114.375C71.5547 117.727 67.9219 120 63.75 120H56.25C50.0391 120 45 114.961 45 108.75C45 102.539 50.0391 97.5 56.25 97.5H63.75C67.9219 97.5 71.5547 99.7734 73.5 103.125L99.375 103.148C104.555 103.148 108.75 98.9531 108.75 93.7734V60C108.75 33.0703 86.9297 11.25 60 11.25ZM33.75 48.75H37.5C41.6484 48.75 45 52.1016 45 56.25V82.5C45 86.6484 41.6484 90 37.5 90H33.75C25.4766 90 18.75 83.2734 18.75 75V63.75C18.75 55.4766 25.4766 48.75 33.75 48.75ZM86.25 48.75C94.5234 48.75 101.25 55.4766 101.25 63.75V75C101.25 83.2734 94.5234 90 86.25 90H82.5C78.3516 90 75 86.6484 75 82.5V56.25C75 52.1016 78.3516 48.75 82.5 48.75H86.25Z"
                fill="#F0910C"
              />
            </g>
            <defs>
              <clipPath id="clip0_45_169">
                <rect width="120" height="120" fill="white" />
              </clipPath>
            </defs>
          </svg>